<svg xmlns="http://www.w3.org/2000/svg" viewBox="263.775 0 662 672.445" xml:space="preserve">
  <path d="M480.173 217.481h230.204c5.811 0 10.523-4.715 10.523-10.524v-89.335c0-5.809-4.713-10.523-10.523-10.523H480.173c-5.81 0-10.523 4.714-10.523 10.523v89.335c-.001 5.815 4.713 10.524 10.523 10.524zm10.523-89.335h209.157v68.288H490.696v-68.288zM626.546 256.887h-62.542c-5.809 0-10.523 4.715-10.523 10.524v60.774c0 5.809 4.715 10.523 10.523 10.523h62.546c5.811 0 10.523-4.715 10.523-10.523v-60.774c-.003-5.809-4.712-10.524-10.527-10.524zm-10.523 60.774h-41.5v-39.727h41.5v39.727zM528.303 256.887h-62.542c-5.81 0-10.523 4.715-10.523 10.524v60.774c0 5.809 4.714 10.523 10.523 10.523h62.547c5.81 0 10.523-4.715 10.523-10.523v-60.774c-.005-5.809-4.714-10.524-10.528-10.524zm-10.524 60.774h-41.5v-39.727h41.5v39.727zM724.789 256.887h-62.541c-5.809 0-10.523 4.715-10.523 10.524v60.774c0 5.809 4.715 10.523 10.523 10.523h62.547c5.809 0 10.523-4.715 10.523-10.523v-60.774c-.006-5.809-4.715-10.524-10.529-10.524zm-10.524 60.774h-41.5v-39.727h41.5v39.727zM626.546 475.311h-62.542c-5.809 0-10.523 4.714-10.523 10.523v60.773c0 5.81 4.715 10.523 10.523 10.523h62.546c5.811 0 10.523-4.714 10.523-10.523v-60.773c-.003-5.81-4.712-10.523-10.527-10.523zm-10.523 60.773h-41.5v-39.727h41.5v39.727zM528.303 475.311h-62.542c-5.81 0-10.523 4.714-10.523 10.523v60.773c0 5.81 4.714 10.523 10.523 10.523h62.547c5.81 0 10.523-4.714 10.523-10.523v-60.773c-.005-5.81-4.714-10.523-10.528-10.523zm-10.524 60.773h-41.5v-39.727h41.5v39.727zM724.789 475.311h-62.541c-5.809 0-10.523 4.714-10.523 10.523v60.773c0 5.81 4.715 10.523 10.523 10.523h62.547c5.809 0 10.523-4.714 10.523-10.523v-60.773c-.006-5.81-4.715-10.523-10.529-10.523zm-10.524 60.773h-41.5v-39.727h41.5v39.727zM626.546 366.102h-62.542c-5.809 0-10.523 4.714-10.523 10.523v60.773c0 5.81 4.715 10.524 10.523 10.524h62.546c5.811 0 10.523-4.715 10.523-10.524v-60.773c-.003-5.814-4.712-10.523-10.527-10.523zm-10.523 60.768h-41.5v-39.727h41.5v39.727zM528.303 366.102h-62.542c-5.81 0-10.523 4.714-10.523 10.523v60.773c0 5.81 4.714 10.524 10.523 10.524h62.547c5.81 0 10.523-4.715 10.523-10.524v-60.773c-.005-5.814-4.714-10.523-10.528-10.523zm-10.524 60.768h-41.5v-39.727h41.5v39.727zM724.789 366.102h-62.541c-5.809 0-10.523 4.714-10.523 10.523v60.773c0 5.81 4.715 10.524 10.523 10.524h62.547c5.809 0 10.523-4.715 10.523-10.524v-60.773c-.006-5.814-4.715-10.523-10.529-10.523zm-10.524 60.768h-41.5v-39.727h41.5v39.727z"/>
  <path d="m837.849 127.72-39.637-40.789V66.399c0-17.412-14.16-31.571-31.57-31.571H423.908c-17.411 0-31.571 14.159-31.571 31.571v20.532L352.7 127.72c-1.905 1.963-2.973 4.594-2.973 7.335v398.141c0 2.531.916 4.982 2.573 6.898l40.037 46.146v20.874c0 17.411 14.16 31.571 31.571 31.571h342.738c17.412 0 31.572-14.16 31.572-31.571V586.24l40.037-46.146c1.656-1.916 2.572-4.362 2.572-6.898V135.055c.001-2.742-1.072-5.372-2.978-7.335zm-467.08 401.545V139.328l21.563-22.189v436.988l-21.563-24.862zm406.397 77.848c0 5.804-4.721 10.523-10.523 10.523H423.908c-5.804 0-10.523-4.72-10.523-10.523V66.399c0-5.804 4.72-10.524 10.523-10.524h342.738c5.805 0 10.525 4.72 10.525 10.524v540.714h-.005zm42.615-77.848-21.563 24.856V117.133l21.563 22.189v389.943z"/>
</svg>