<?xml version="1.0" encoding="utf-8"?>
<!-- Generator: Adobe Illustrator 16.0.3, SVG Export Plug-In . SVG Version: 6.00 Build 0)  -->
<!DOCTYPE svg PUBLIC "-//W3C//DTD SVG 1.1//EN" "http://www.w3.org/Graphics/SVG/1.1/DTD/svg11.dtd">
<svg version="1.1" id="Layer_1" xmlns="http://www.w3.org/2000/svg" xmlns:xlink="http://www.w3.org/1999/xlink" x="0px" y="0px"
	 width="1190.55px" height="841.891px" viewBox="0 0 1190.55 841.891" enable-background="new 0 0 1190.55 841.891"
	 xml:space="preserve">
<g>
	<path d="M837.319,294.633h-42.094v-42.095h-21.047v42.095H416.374v-42.095h-21.047v42.095h-42.095
		c-17.436,0-31.57,14.135-31.57,31.571v21.047c0.052,15.466,11.301,28.617,26.572,31.065L542.657,582.98v143.121
		c-0.031,5.812,4.654,10.549,10.467,10.581c1.652,0.009,3.283-0.371,4.762-1.11l84.189-42.094c3.584-1.792,5.842-5.464,5.818-9.472
		V582.98l194.426-204.664c15.27-2.449,26.52-15.6,26.57-31.065v-21.047C868.889,308.768,854.754,294.633,837.319,294.633z
		 M847.842,347.251c0,5.812-4.711,10.523-10.523,10.523h-42.094v21.047h17.584L629.698,571.53c-1.84,1.96-2.861,4.551-2.852,7.24
		v98.732l-63.142,31.571V578.771c-0.002-2.695-1.038-5.286-2.894-7.24L377.742,378.822h396.437v-21.047H353.232
		c-5.812,0-10.523-4.711-10.523-10.523v-21.047c0-5.812,4.712-10.524,10.523-10.524h484.087c5.813,0,10.523,4.712,10.523,10.524
		V347.251z"/>
	<path d="M595.276,273.585c34.873,0,63.143-28.27,63.143-63.142c0-34.873-28.27-63.142-63.143-63.142s-63.143,28.27-63.143,63.142
		C532.168,245.302,560.417,273.551,595.276,273.585z M595.276,168.349c23.248,0,42.094,18.846,42.094,42.095
		c0,23.248-18.846,42.094-42.094,42.094c-23.249,0-42.095-18.846-42.095-42.094C553.181,187.195,572.027,168.349,595.276,168.349z"
		/>
	<path d="M353.232,231.491h105.236c5.812,0.003,10.525-4.707,10.528-10.519c0.001-1.634-0.379-3.247-1.109-4.709l-52.618-105.236
		c-3.102-5.202-9.832-6.904-15.034-3.803c-1.563,0.933-2.871,2.24-3.803,3.803l-52.618,105.236
		c-2.599,5.199-0.49,11.52,4.709,14.118C349.986,231.112,351.597,231.492,353.232,231.491z M405.85,139.262l35.591,71.182h-71.182
		L405.85,139.262z"/>
	<path d="M732.083,231.491h105.236c5.813,0,10.523-4.711,10.523-10.523V115.731c0-5.812-4.711-10.523-10.523-10.523H732.083
		c-5.813,0-10.523,4.711-10.523,10.523v105.236C721.559,226.779,726.27,231.491,732.083,231.491z M742.606,126.255h84.189v84.189
		h-84.189V126.255z"/>
	<rect x="490.04" y="189.396" width="21.047" height="84.189"/>
	<rect x="679.465" y="189.396" width="21.047" height="84.189"/>
	<rect x="679.465" y="105.208" width="21.047" height="42.094"/>
	<rect x="490.04" y="105.208" width="21.047" height="42.094"/>
</g>
</svg>
