<?xml version="1.0" encoding="utf-8"?>
<!-- Generator: Adobe Illustrator 16.0.3, SVG Export Plug-In . SVG Version: 6.00 Build 0)  -->
<!DOCTYPE svg PUBLIC "-//W3C//DTD SVG 1.1//EN" "http://www.w3.org/Graphics/SVG/1.1/DTD/svg11.dtd">
<svg version="1.1" id="Layer_1" xmlns="http://www.w3.org/2000/svg" xmlns:xlink="http://www.w3.org/1999/xlink" x="0px" y="0px"
	 width="1190.55px" height="841.891px" viewBox="0 0 1190.55 841.891" enable-background="new 0 0 1190.55 841.891"
	 xml:space="preserve">
<g>
	<path d="M762.81,312.932c1.629-3.934,0.729-8.461-2.283-11.471l-63.143-63.142c-1.973-1.974-4.648-3.083-7.439-3.083H437.378
		c-5.813,0-10.524,4.711-10.524,10.523V624.61c0,5.813,4.712,10.523,10.524,10.523h315.707c5.813,0,10.525-4.711,10.525-10.523
		V340.473h-21.049v273.614h-294.66V256.283h231.52v52.618c0,5.813,4.711,10.523,10.523,10.523h63.141
		C757.343,319.426,761.179,316.863,762.81,312.932z M700.468,298.378v-27.214l27.215,27.214H700.468z"/>
	<path d="M668.898,350.996c0-40.685-32.982-73.666-73.665-73.666c-40.685,0-73.666,32.981-73.666,73.666
		s32.981,73.665,73.666,73.665C635.894,424.609,668.845,391.659,668.898,350.996z M542.614,350.996
		c0-29.061,23.559-52.618,52.619-52.618c29.06,0,52.616,23.558,52.616,52.618s-23.557,52.618-52.616,52.618
		C566.187,403.579,542.649,380.042,542.614,350.996z"/>
	<path d="M593.665,545.946c1.914-3.1,2.089-6.969,0.463-10.229l-52.618-105.236c-3.102-5.202-9.832-6.905-15.034-3.804
		c-1.563,0.933-2.871,2.239-3.803,3.804l-52.618,105.236c-2.599,5.198-0.489,11.52,4.709,14.117c1.463,0.73,3.075,1.11,4.709,1.11
		h105.236C588.359,550.944,591.749,549.053,593.665,545.946z M496.5,529.897l35.591-71.182l35.591,71.182H496.5z"/>
	<path d="M721.515,435.186c0-5.813-4.711-10.524-10.523-10.524h-84.189c-5.811,0-10.523,4.712-10.523,10.524v105.235
		c0,5.813,4.713,10.524,10.523,10.524h84.189c5.813,0,10.523-4.712,10.523-10.524V435.186z M700.468,529.897h-63.143v-84.188h63.143
		V529.897z"/>
	<rect x="595.233" y="571.992" width="126.282" height="21.048"/>
	<rect x="468.949" y="571.992" width="105.236" height="21.048"/>
	<path d="M609.744,140.892l13.977-13.976l-14.881-14.88l-31.571,31.57c-4.107,4.109-4.107,10.771,0,14.881l31.571,31.57
		l14.881-14.88l-13.156-13.154c150.998,8.592,266.439,137.964,257.848,288.961c-1.061,18.641-4.025,37.124-8.848,55.161
		l20.332,5.452c42.063-157.353-51.398-319.009-208.75-361.071C651.076,145.161,630.494,141.932,609.744,140.892z"/>
	<path d="M351,558.479c-68.057-135.05-13.748-299.701,121.303-367.757c16.675-8.403,34.166-15.079,52.2-19.923l-5.441-20.332
		c-157.287,42.234-250.557,203.978-208.323,361.266c5.391,20.077,12.89,39.528,22.371,58.027l-25.898-6.935l-5.451,20.332
		l49.935,13.375c0.893,0.237,1.813,0.357,2.736,0.358c4.759-0.005,8.923-3.202,10.155-7.799l13.375-49.935l-20.321-5.451
		L351,558.479z"/>
	<path d="M851.83,559.027c-2.422-1.382-5.289-1.76-7.988-1.053l-55.449,14.859l5.453,20.332l30.285-8.124
		c-82.92,126.475-252.67,161.782-379.146,78.861c-15.628-10.246-30.166-22.065-43.387-35.272l-14.859,14.922
		c115.074,115.071,301.642,115.069,416.714-0.004c14.813-14.813,28.002-31.163,39.348-48.772l8.418,31.57l20.332-5.44
		l-14.848-55.449C855.996,562.752,854.244,560.438,851.83,559.027z"/>
</g>
</svg>
