<?xml version="1.0" encoding="utf-8"?>
<!-- Generator: Adobe Illustrator 16.0.3, SVG Export Plug-In . SVG Version: 6.00 Build 0)  -->
<!DOCTYPE svg PUBLIC "-//W3C//DTD SVG 1.1//EN" "http://www.w3.org/Graphics/SVG/1.1/DTD/svg11.dtd">
<svg version="1.1" id="Layer_1" xmlns="http://www.w3.org/2000/svg" xmlns:xlink="http://www.w3.org/1999/xlink" x="0px" y="0px"
	 width="24px" height="24px" viewBox="583.275 408.945 24 24" enable-background="new 583.275 408.945 24 24" xml:space="preserve">
<g>
	<path d="M602.234,416.205c0.658,0.966,1.109,2.06,1.32,3.21h-2.344c-0.553-2.16-2.24-3.847-4.4-4.398v-2.348
		c1.545,0.283,2.979,0.994,4.137,2.055l0.516-0.565c-1.385-1.267-3.125-2.074-4.984-2.315c-0.211-0.027-0.402,0.12-0.43,0.33
		c-0.002,0.017-0.002,0.032-0.002,0.049v3.1c0,0.181,0.127,0.338,0.305,0.375c2.107,0.424,3.752,2.071,4.178,4.178
		c0.035,0.178,0.193,0.306,0.375,0.306h3.098c0.213,0,0.383-0.171,0.385-0.383c0-0.016-0.002-0.033-0.004-0.049
		c-0.188-1.426-0.707-2.787-1.516-3.975L602.234,416.205z"/>
	<path d="M590.202,422.641c-0.94-2.8,0.566-5.832,3.366-6.772c0.21-0.07,0.424-0.128,0.641-0.172
		c0.178-0.037,0.306-0.193,0.306-0.375v-3.1c0-0.212-0.171-0.382-0.383-0.382c-0.016,0-0.033,0.001-0.049,0.003
		c-2.053,0.271-3.955,1.227-5.397,2.713l0.549,0.535c1.218-1.255,2.795-2.102,4.515-2.422v2.348c-2.7,0.704-4.585,3.139-4.592,5.929
		c0.001,0.553,0.077,1.104,0.226,1.637l-2.038,1.178c-0.797-2.254-0.601-4.74,0.541-6.84l-0.671-0.367
		c-1.326,2.438-1.481,5.344-0.421,7.907c0.081,0.196,0.305,0.289,0.5,0.208c0.015-0.006,0.03-0.015,0.045-0.021l2.69-1.555
		C590.187,423.002,590.259,422.813,590.202,422.641z"/>
	<path d="M604.001,421.71h-3.098c-0.182,0-0.34,0.129-0.375,0.306c-0.588,2.897-3.412,4.768-6.308,4.179
		c-1.141-0.232-2.174-0.829-2.945-1.7c-0.121-0.136-0.32-0.168-0.477-0.077l-2.69,1.555c-0.183,0.104-0.246,0.338-0.14,0.521
		c0.008,0.015,0.018,0.028,0.028,0.041c0.687,0.895,1.532,1.655,2.493,2.245l0.4-0.651c-0.756-0.462-1.435-1.042-2.01-1.717
		l2.039-1.18c2.364,2.413,6.236,2.453,8.648,0.09c0.799-0.78,1.365-1.766,1.645-2.845h2.346c-0.85,4.573-5.244,7.594-9.819,6.745
		c-0.219-0.041-0.437-0.092-0.653-0.148l-0.199,0.739c4.902,1.318,9.943-1.586,11.261-6.485c0.105-0.389,0.184-0.785,0.236-1.185
		c0.027-0.209-0.121-0.401-0.33-0.429C604.037,421.711,604.019,421.71,604.001,421.71z"/>
	<path d="M596.046,417.884h-2.296c-0.211,0-0.383,0.172-0.383,0.383v2.679h-1.53v-3.062h-0.765v5.739
		c0,0.212,0.171,0.384,0.383,0.384h8.034v-0.766h-0.764v-3.444c0-0.211-0.172-0.382-0.383-0.382h-1.914v-1.148
		C596.427,418.056,596.255,417.884,596.046,417.884z M591.836,421.71h1.53v1.531h-1.53V421.71z M594.132,421.327v-2.678h1.53v4.592
		h-1.53V421.327z M597.958,420.18v3.062h-1.531v-3.062H597.958z"/>
	<path d="M603.808,412.641l-3.059,3.061l0.541,0.54l2.949-2.948h2.52v-0.765h-2.68C603.978,412.528,603.882,412.568,603.808,412.641
		z"/>
	<path d="M606.376,409.467h-2.297c-0.211,0-0.383,0.172-0.383,0.383v1.53c0,0.212,0.172,0.383,0.383,0.383h2.297
		c0.211,0,0.383-0.171,0.383-0.383v-1.53C606.759,409.639,606.587,409.467,606.376,409.467z M605.994,410.998h-1.531v-0.766h1.531
		V410.998z"/>
	<rect x="603.697" y="414.059" width="3.063" height="0.765"/>
	<rect x="603.697" y="415.589" width="3.063" height="0.765"/>
	<rect x="587.628" y="431.659" width="3.061" height="0.765"/>
	<path d="M588.882,417.013l0.542-0.541l-2.684-2.684c-0.072-0.072-0.168-0.112-0.271-0.112h-2.678v0.765h2.521L588.882,417.013z"/>
	<path d="M584.173,412.91h2.296c0.211,0,0.383-0.171,0.383-0.382v-1.53c0-0.212-0.171-0.383-0.383-0.383h-2.296
		c-0.211,0-0.382,0.171-0.382,0.383v1.53C583.791,412.739,583.962,412.91,584.173,412.91z M584.556,411.38h1.53v0.766h-1.53V411.38z
		"/>
	<path d="M586.48,430.128h-2.295c-0.211,0-0.383,0.172-0.383,0.383v1.53c0,0.212,0.171,0.383,0.383,0.383h2.295
		c0.211,0,0.382-0.171,0.382-0.383v-1.53C586.862,430.3,586.691,430.128,586.48,430.128z M586.098,431.659h-1.531v-0.766h1.531
		V431.659z"/>
	<rect x="583.791" y="415.206" width="3.061" height="0.765"/>
	<path d="M590.577,430.78l2.678-2.677l-0.541-0.541l-2.566,2.565h-2.52v0.766h2.678C590.408,430.894,590.505,430.853,590.577,430.78
		z"/>
</g>
</svg>
