<svg xmlns="http://www.w3.org/2000/svg" xml:space="preserve" viewBox="0.595 3.346 70.293 70.292"><path d="M16.102 53.222h14.729a9.817 9.817 0 0 0 9.82-9.82v-29.46a9.817 9.817 0 0 0-9.82-9.819H16.102a9.817 9.817 0 0 0-9.819 9.819v29.459a9.817 9.817 0 0 0 9.819 9.821zm-4.911-39.28c0-2.7 2.21-4.91 4.91-4.91H30.83c2.7 0 4.91 2.21 4.91 4.91v29.459c0 2.701-2.21 4.911-4.91 4.911H16.102c-2.7 0-4.91-2.21-4.91-4.911V13.942z"/><path d="M48.016 28.672h7.365c2.7 0 4.91 2.21 4.91 4.91v29.459c0 2.701-2.21 4.91-4.91 4.91h-14.73c-2.7 0-4.91-2.209-4.91-4.91v-2.454a2.462 2.462 0 0 0-2.455-2.456 2.463 2.463 0 0 0-2.455 2.456v2.454a9.817 9.817 0 0 0 9.82 9.82H55.38a9.817 9.817 0 0 0 9.819-9.82V33.582a9.817 9.817 0 0 0-9.819-9.82h-7.365a2.462 2.462 0 0 0-2.455 2.456 2.463 2.463 0 0 0 2.456 2.454zM23.467 43.401h4.91a2.46 2.46 0 0 0 2.454-2.454v-7.365a2.461 2.461 0 0 0-2.454-2.455 2.461 2.461 0 0 0-2.455 2.455v4.91h-2.455a2.462 2.462 0 0 0-2.456 2.455 2.462 2.462 0 0 0 2.456 2.454z"/><path d="M48.016 63.041h4.91a2.461 2.461 0 0 0 2.455-2.454v-7.365c0-1.35-1.104-2.455-2.455-2.455s-2.455 1.105-2.455 2.455v4.909h-2.455a2.462 2.462 0 0 0-2.455 2.456 2.461 2.461 0 0 0 2.455 2.454z"/></svg>